HIERARCHY
ROOT RootJoint
{
    OFFSET   0.000000   0.000000   0.000000
    CHANNELS 6 Xposition Yposition Zposition Xrotation Yrotation Zrotation
    JOINT pelvis_lowerback
    {
        OFFSET   0.000000   0.093605   0.000000
        CHANNELS 3 Xrotation Yrotation Zrotation
        JOINT lowerback_torso
        {
            OFFSET   0.000000   0.100000   0.000000
            CHANNELS 3 Xrotation Yrotation Zrotation
            JOINT torso_head
            {
                OFFSET   0.000000   0.282350   0.000000
                CHANNELS 3 Xrotation Yrotation Zrotation
                End Site
                {
                    OFFSET   0.000000   0.192650   0.000000
                }
            }
            JOINT rTorso_Clavicle
            {
                OFFSET  -0.001000   0.157500   0.000000
                CHANNELS 3 Xrotation Yrotation Zrotation
                JOINT rShoulder
                {
                    OFFSET  -0.117647   0.000000   0.000000
                    CHANNELS 3 Xrotation Yrotation Zrotation
                    JOINT rElbow
                    {
                        OFFSET  -0.245000   0.000000   0.000000
                        CHANNELS 3 Xrotation Yrotation Zrotation
                        JOINT rWrist
                        {
                            OFFSET  -0.240000   0.000000   0.000000
                            CHANNELS 3 Xrotation Yrotation Zrotation
                            End Site
                            {
                                OFFSET  -0.116353  -0.002500   0.000000
                            }
                        }
                    }
                }
            }
            JOINT lTorso_Clavicle
            {
                OFFSET   0.001000   0.157500   0.000000
                CHANNELS 3 Xrotation Yrotation Zrotation
                JOINT lShoulder
                {
                    OFFSET   0.117647   0.000000   0.000000
                    CHANNELS 3 Xrotation Yrotation Zrotation
                    JOINT lElbow
                    {
                        OFFSET   0.245000   0.000000   0.000000
                        CHANNELS 3 Xrotation Yrotation Zrotation
                        JOINT lWrist
                        {
                            OFFSET   0.240000   0.000000   0.000000
                            CHANNELS 3 Xrotation Yrotation Zrotation
                            End Site
                            {
                                OFFSET   0.116353  -0.002500   0.000000
                            }
                        }
                    }
                }
            }
        }
    }
    JOINT rHip
    {
        OFFSET  -0.100000  -0.051395   0.000000
        CHANNELS 3 Xrotation Yrotation Zrotation
        JOINT rKnee
        {
            OFFSET   0.000000  -0.410000   0.000000
            CHANNELS 3 Xrotation Yrotation Zrotation
            JOINT rAnkle
            {
                OFFSET   0.000000  -0.390000   0.000000
                CHANNELS 3 Xrotation Yrotation Zrotation
                JOINT rToeJoint
                {
                    OFFSET   0.000000  -0.050000   0.130000
                    CHANNELS 3 Xrotation Yrotation Zrotation
                    End Site
                    {
                        OFFSET  -0.010000   0.002000   0.060000
                    }
                }
            }
        }
    }
    JOINT lHip
    {
        OFFSET   0.100000  -0.051395   0.000000
        CHANNELS 3 Xrotation Yrotation Zrotation
        JOINT lKnee
        {
            OFFSET   0.000000  -0.410000   0.000000
            CHANNELS 3 Xrotation Yrotation Zrotation
            JOINT lAnkle
            {
                OFFSET   0.000000  -0.390000   0.000000
                CHANNELS 3 Xrotation Yrotation Zrotation
                JOINT lToeJoint
                {
                    OFFSET   0.000000  -0.050000   0.130000
                    CHANNELS 3 Xrotation Yrotation Zrotation
                    End Site
                    {
                        OFFSET   0.010000   0.002000   0.060000
                    }
                }
            }
        }
    }
}
MOTION
Frames: 5
Frame Time:   0.008333
 -2.324301   0.900642   4.422142 174.095292  23.891153 179.993238   3.861784   2.273331   3.620745   2.641636   3.095043   2.821616  -3.018900   6.884567  -4.489606  10.619838  -7.977769  -5.591625  35.051212  21.195296  52.169023  -0.028720  45.622384  -0.017943   2.990226   3.526059  10.107510   5.012121  11.488524   8.868412  35.390356 -12.245468 -44.075231  -0.113580 -72.237816  -0.163028   0.367633  -6.927229  -9.455890 -26.326859   3.754129  -6.111202  55.923640  -0.103144  -0.117372 -10.405025  -4.448627   2.687819  -3.795243   0.015847   0.029063  -8.160811 -19.051840  -1.816195  23.646241  -0.001629  -0.018092 -19.378356 -13.995898   5.820251  -0.258562  -0.000058  -0.000139
 -2.320769   0.900934   4.420148 174.248996  21.888834 179.781211   3.726779   2.165759   3.634772   2.605085   3.023897   2.948607  -2.923716   6.928717  -4.377589  10.493513  -8.231641  -5.675620  35.003023  20.759148  51.737719  -0.030779  46.228858  -0.017013   2.957981   3.516191  10.065560   4.921091  11.511050   9.005339  35.268684 -12.236035 -43.665869  -0.118933 -73.147159  -0.166140   0.434206  -6.949630  -9.458184 -25.822120   4.743308  -6.195801  53.950531  -0.112527  -0.135058 -10.387485  -3.501550   2.858993  -3.530240   0.015216   0.031530  -7.836072 -19.861839  -1.462987  23.402661  -0.001439  -0.017169 -19.345144 -14.902085   5.212545  -0.344430  -0.000257  -0.000347
 -2.317235   0.901190   4.418157 174.364139  19.844581 179.590256   3.578713   2.056273   3.642060   2.557618   2.939661   3.073509  -2.830185   6.973741  -4.262440  10.363356  -8.467358  -5.797035  34.955022  20.334967  51.302901  -0.032076  46.796279  -0.016280   2.922116   3.529257   9.947106   4.810514  11.497151   9.154342  35.128865 -12.241353 -43.266226  -0.123939 -74.013280  -0.168865   0.487355  -7.051984  -9.432978 -25.269808   5.736912  -6.344339  51.986342  -0.119265  -0.150326 -10.374213  -2.612286   3.015501  -3.259165   0.014899   0.033701  -7.559446 -20.622194  -1.104830  23.192557  -0.001315  -0.016216 -19.321304 -15.759128   4.623609  -0.131481   0.000278   0.000562
 -2.313666   0.901405   4.416178 174.446426  17.811708 179.415593   3.430187   1.959124   3.642926   2.500501   2.861218   3.184314  -2.744670   7.016982  -4.153390  10.233442  -8.677603  -5.937096  34.905797  19.931627  50.876834  -0.032553  47.324713  -0.015726   2.889377   3.536659   9.782865   4.694699  11.467498   9.304629  34.985909 -12.250811 -42.883262  -0.127490 -74.827073  -0.170167   0.532187  -7.189909  -9.372540 -24.722884   6.687376  -6.538896  50.134587  -0.121322  -0.160130 -10.363095  -1.782365   3.158338  -3.008696   0.014433   0.034599  -7.306207 -21.341637  -0.733410  22.987859  -0.001223  -0.015440 -19.323706 -16.567188   4.064092  -0.305425  -0.000118  -0.000353
 -2.310040   0.901593   4.414206 174.503193  15.802832 179.251817   3.286549   1.874456   3.636673   2.439837   2.792271   3.280462  -2.666160   7.057961  -4.051724  10.105190  -8.865148  -6.083877  34.854268  19.551698  50.466572  -0.032315  47.817348  -0.015301   2.859679   3.537525   9.593356   4.580845  11.431863   9.449577  34.846809 -12.261516 -42.520867  -0.129253 -75.588157  -0.169769   0.573298  -7.336108  -9.290936 -24.190017   7.580664  -6.762758  48.409904  -0.119517  -0.164875 -10.353097  -1.007594   3.289326  -2.779620   0.013789   0.034454  -7.068506 -22.012940  -0.347088  22.789604  -0.001151  -0.014779 -19.343476 -17.316770   3.533061  -0.471767  -0.000366  -0.001170
